<svg xmlns="http://www.w3.org/2000/svg" xmlns:xlink="http://www.w3.org/1999/xlink" width="230" zoomAndPan="magnify" viewBox="0 0 172.5 35.25" height="47" preserveAspectRatio="xMidYMid meet" version="1.0"><defs><g/></defs><g fill="#222222" fill-opacity="1"><g transform="translate(5.01365, 12.582538)"><g><path d="M 7.644531 -5.800781 L 11.242188 -11.445312 L 7.007812 -11.445312 L 4.339844 -6.78125 L 4.257812 -6.78125 L 4.257812 -11.445312 L 0.578125 -11.445312 L 0.578125 0 L 4.257812 0 L 4.257812 -4.414062 L 4.382812 -4.414062 L 7.179688 0 L 11.78125 0 Z M 7.644531 -5.800781 "/></g></g></g><g fill="#222222" fill-opacity="1"><g transform="translate(18.539648, 12.582538)"><g><path d="M 8.078125 0 L 12.097656 0 L 8.199219 -11.445312 L 3.933594 -11.445312 L 0.0390625 0 L 3.890625 0 L 4.371094 -1.777344 L 7.597656 -1.777344 Z M 5.1875 -4.789062 L 5.9375 -7.539062 L 6.03125 -7.539062 L 6.78125 -4.789062 Z M 5.1875 -4.789062 "/></g></g></g><g fill="#222222" fill-opacity="1"><g transform="translate(32.477615, 12.582538)"><g><path d="M 0.578125 0 L 7.863281 0 L 7.863281 -3.269531 L 4.25 -3.269531 L 4.25 -11.445312 L 0.578125 -11.445312 Z M 0.578125 0 "/></g></g></g><g fill="#222222" fill-opacity="1"><g transform="translate(42.393323, 12.582538)"><g><path d="M 8.078125 0 L 12.097656 0 L 8.199219 -11.445312 L 3.933594 -11.445312 L 0.0390625 0 L 3.890625 0 L 4.371094 -1.777344 L 7.597656 -1.777344 Z M 5.1875 -4.789062 L 5.9375 -7.539062 L 6.03125 -7.539062 L 6.78125 -4.789062 Z M 5.1875 -4.789062 "/></g></g></g><g fill="#222222" fill-opacity="1"><g transform="translate(56.33129, 12.582538)"><g><path d="M 13.542969 -11.445312 L 11.976562 -4.429688 L 11.886719 -4.429688 L 10.035156 -11.445312 L 7.457031 -11.445312 L 5.621094 -4.429688 L 5.515625 -4.429688 L 3.957031 -11.445312 L -0.0742188 -11.445312 L 3.453125 0 L 7.300781 0 L 8.640625 -5.90625 L 8.714844 -5.90625 L 10.042969 0 L 13.886719 0 L 17.425781 -11.445312 Z M 13.542969 -11.445312 "/></g></g></g><g fill="#222222" fill-opacity="1"><g transform="translate(75.482455, 12.582538)"><g><path d="M 8.078125 0 L 12.097656 0 L 8.199219 -11.445312 L 3.933594 -11.445312 L 0.0390625 0 L 3.890625 0 L 4.371094 -1.777344 L 7.597656 -1.777344 Z M 5.1875 -4.789062 L 5.9375 -7.539062 L 6.03125 -7.539062 L 6.78125 -4.789062 Z M 5.1875 -4.789062 "/></g></g></g><g fill="#222222" fill-opacity="1"><g transform="translate(89.420422, 12.582538)"><g><path d="M 2.234375 0.300781 C 4.183594 0.300781 5.941406 -1.0625 5.941406 -3.914062 L 5.941406 -11.445312 L 2.285156 -11.445312 L 2.277344 -4.0625 C 2.277344 -3.269531 1.949219 -3.042969 1.4375 -3.042969 C 1.140625 -3.042969 0.667969 -3.101562 0.164062 -3.378906 L 0.0976562 -0.046875 C 0.667969 0.140625 1.347656 0.300781 2.234375 0.300781 Z M 2.234375 0.300781 "/></g></g></g><g fill="#222222" fill-opacity="1"><g transform="translate(97.6733, 12.582538)"><g><path d="M 8.078125 0 L 12.097656 0 L 8.199219 -11.445312 L 3.933594 -11.445312 L 0.0390625 0 L 3.890625 0 L 4.371094 -1.777344 L 7.597656 -1.777344 Z M 5.1875 -4.789062 L 5.9375 -7.539062 L 6.03125 -7.539062 L 6.78125 -4.789062 Z M 5.1875 -4.789062 "/></g></g></g><g fill="#c0c0c0" fill-opacity="1"><g transform="translate(5.01365, 29.398167)"><g><path d="M 7.199219 0.214844 C 8.964844 0.214844 10.238281 -0.261719 11.359375 -0.921875 L 10.097656 -3.636719 C 9.039062 -3.054688 8.105469 -2.871094 7.199219 -2.871094 C 5.3125 -2.871094 3.945312 -4.234375 3.945312 -6.199219 L 3.945312 -6.230469 C 3.945312 -8.351562 5.324219 -9.578125 7.199219 -9.578125 C 8.105469 -9.578125 9.039062 -9.394531 10.097656 -8.808594 L 11.359375 -11.527344 C 10.222656 -12.203125 8.949219 -12.679688 7.199219 -12.679688 C 3.175781 -12.679688 0.566406 -10.097656 0.566406 -6.230469 L 0.566406 -6.199219 C 0.566406 -2.332031 3.191406 0.214844 7.199219 0.214844 Z M 7.199219 0.214844 "/></g></g></g><g fill="#c0c0c0" fill-opacity="1"><g transform="translate(20.294399, 29.398167)"><g><path d="M 9.332031 0 L 9.332031 -3.101562 L 4.050781 -3.101562 L 4.050781 -12.449219 L 0.738281 -12.449219 L 0.738281 0 Z M 9.332031 0 "/></g></g></g><g fill="#c0c0c0" fill-opacity="1"><g transform="translate(33.335519, 29.398167)"><g><path d="M 7.167969 0.214844 C 11.128906 0.214844 13.753906 -2.6875 13.753906 -6.246094 L 13.753906 -6.261719 C 13.753906 -9.839844 11.144531 -12.679688 7.167969 -12.679688 C 3.175781 -12.679688 0.566406 -9.839844 0.566406 -6.261719 L 0.566406 -6.246094 C 0.566406 -2.6875 3.191406 0.214844 7.167969 0.214844 Z M 7.167969 -2.886719 C 5.296875 -2.886719 3.945312 -4.25 3.945312 -6.246094 L 3.945312 -6.261719 C 3.945312 -8.257812 5.28125 -9.578125 7.167969 -9.578125 C 9.039062 -9.578125 10.375 -8.257812 10.375 -6.261719 L 10.375 -6.246094 C 10.375 -4.25 9.023438 -2.886719 7.167969 -2.886719 Z M 7.167969 -2.886719 "/></g></g></g><g fill="#c0c0c0" fill-opacity="1"><g transform="translate(51.055307, 29.398167)"><g><path d="M 7.199219 0.214844 C 8.964844 0.214844 10.238281 -0.261719 11.359375 -0.921875 L 10.097656 -3.636719 C 9.039062 -3.054688 8.105469 -2.871094 7.199219 -2.871094 C 5.3125 -2.871094 3.945312 -4.234375 3.945312 -6.199219 L 3.945312 -6.230469 C 3.945312 -8.351562 5.324219 -9.578125 7.199219 -9.578125 C 8.105469 -9.578125 9.039062 -9.394531 10.097656 -8.808594 L 11.359375 -11.527344 C 10.222656 -12.203125 8.949219 -12.679688 7.199219 -12.679688 C 3.175781 -12.679688 0.566406 -10.097656 0.566406 -6.230469 L 0.566406 -6.199219 C 0.566406 -2.332031 3.191406 0.214844 7.199219 0.214844 Z M 7.199219 0.214844 "/></g></g></g><g fill="#c0c0c0" fill-opacity="1"><g transform="translate(66.336056, 29.398167)"><g><path d="M 11.617188 -12.449219 L 7.875 -12.449219 L 4.050781 -6.386719 L 4.050781 -12.449219 L 0.738281 -12.449219 L 0.738281 0 L 4.050781 0 L 4.050781 -6.078125 L 7.828125 0 L 11.632812 0 L 7.445312 -6.246094 Z M 11.617188 -12.449219 "/></g></g></g></svg>